# xmcd CD database file
#
# Track frame offsets:
#	150
#	17701
#	35251
#	47551
#	59851
#	75376
#	90901
#	108302
#	125702
#	139050
#	152401
#	163425
#	174451
#	189375
#	204300
#	221326
#	238351
#	257400
#	276451
#	288825
#	301200
#
# Disc length: 4034 seconds
#
# Revision: 0
# Processed by: cddbd v1.5.2PL0 Copyright (c) Steve Scherf et al.
# Submitted via: CDex 1.70beta2
#
DISCID=240fc015
DTITLE=Hal Leonard - Volume 58 - More Lennon And McCartney
DYEAR=1900
DGENRE=Jazz
TTITLE0=Cant By Me Love
TTITLE1=Cant By Me Love - split
TTITLE2=Michelle
TTITLE3=Michelle -split
TTITLE4=Norwegian Wood
TTITLE5=Norwegian Wood - split
TTITLE6=Eight Days A Week
TTITLE7=Eight Days A Week - split
TTITLE8=Yellow Submarine
TTITLE9=Yellow Submarine - split
TTITLE10=In My Life
TTITLE11=In My Life - split
TTITLE12=The Long And Winding Road
TTITLE13=The Long And Winding Road - split
TTITLE14=All My Loving
TTITLE15=All My Loving - split
TTITLE16=Julia
TTITLE17=Julia - split
TTITLE18=Ob-La-Di Ob-La-Da 
TTITLE19=Ob-La-Di Ob-La-Da -split
TTITLE20=Tuning Notes
EXTD=
EXTT0=
EXTT1=
EXTT2=
EXTT3=
EXTT4=
EXTT5=
EXTT6=
EXTT7=
EXTT8=
EXTT9=
EXTT10=
EXTT11=
EXTT12=
EXTT13=
EXTT14=
EXTT15=
EXTT16=
EXTT17=
EXTT18=
EXTT19=
EXTT20=
PLAYORDER=
